<mxfile host="Electron" modified="2023-06-22T10:08:39.523Z" agent="Mozilla/5.0 (Macintosh; Intel Mac OS X 10_15_7) AppleWebKit/537.36 (KHTML, like Gecko) draw.io/21.4.0 Chrome/112.0.5615.204 Electron/24.5.1 Safari/537.36" etag="en62UpjoYq5n25chZF8T" version="21.4.0" type="device">
  <diagram name="Page-1" id="adKYDT99F6B7E5xMw55L">
    <mxGraphModel dx="2474" dy="799" grid="1" gridSize="10" guides="1" tooltips="1" connect="1" arrows="1" fold="1" page="0" pageScale="1" pageWidth="827" pageHeight="1169" math="0" shadow="0">
      <root>
        <mxCell id="0" />
        <mxCell id="1" parent="0" />
        <mxCell id="rmGUA4Gjx7cMflotxFhx-64" value="" style="rounded=1;whiteSpace=wrap;html=1;fontSize=16;fillColor=#fff2cc;strokeColor=#d6b656;dashed=1;arcSize=38;" parent="1" vertex="1">
          <mxGeometry x="420" y="315" width="480" height="250" as="geometry" />
        </mxCell>
        <mxCell id="rmGUA4Gjx7cMflotxFhx-3" value="" style="rounded=1;whiteSpace=wrap;html=1;fontSize=16;fillColor=#dae8fc;strokeColor=#6c8ebf;dashed=1;arcSize=38;" parent="1" vertex="1">
          <mxGeometry x="-350" y="50" width="290" height="350" as="geometry" />
        </mxCell>
        <mxCell id="rmGUA4Gjx7cMflotxFhx-5" value="" style="rounded=1;whiteSpace=wrap;html=1;fontSize=16;fillColor=#ffe6cc;strokeColor=#d79b00;dashed=1;arcSize=38;" parent="1" vertex="1">
          <mxGeometry x="-390" y="470" width="360" height="340" as="geometry" />
        </mxCell>
        <mxCell id="rmGUA4Gjx7cMflotxFhx-1" value="" style="rounded=1;whiteSpace=wrap;html=1;fontSize=16;fillColor=#d5e8d4;strokeColor=#82b366;dashed=1;arcSize=38;" parent="1" vertex="1">
          <mxGeometry x="80" y="315" width="250" height="250" as="geometry" />
        </mxCell>
        <mxCell id="rmGUA4Gjx7cMflotxFhx-2" value="Core Storage" style="text;html=1;strokeColor=none;fillColor=none;align=center;verticalAlign=middle;whiteSpace=wrap;rounded=0;fontSize=18;" parent="1" vertex="1">
          <mxGeometry x="142.5" y="565" width="125" height="30" as="geometry" />
        </mxCell>
        <mxCell id="rmGUA4Gjx7cMflotxFhx-4" value="Add Data" style="text;html=1;strokeColor=none;fillColor=none;align=center;verticalAlign=middle;whiteSpace=wrap;rounded=0;fontSize=18;" parent="1" vertex="1">
          <mxGeometry x="-257.5" y="400" width="105" height="30" as="geometry" />
        </mxCell>
        <mxCell id="rmGUA4Gjx7cMflotxFhx-6" value="Run Queries" style="text;html=1;strokeColor=none;fillColor=none;align=center;verticalAlign=middle;whiteSpace=wrap;rounded=0;fontSize=18;" parent="1" vertex="1">
          <mxGeometry x="-257.5" y="810" width="105" height="30" as="geometry" />
        </mxCell>
        <mxCell id="rmGUA4Gjx7cMflotxFhx-104" style="edgeStyle=none;curved=1;rounded=0;orthogonalLoop=1;jettySize=auto;html=1;fontSize=12;startSize=8;endSize=8;fillColor=#d5e8d4;strokeColor=#82b366;" parent="1" source="rmGUA4Gjx7cMflotxFhx-16" target="rmGUA4Gjx7cMflotxFhx-22" edge="1">
          <mxGeometry relative="1" as="geometry" />
        </mxCell>
        <mxCell id="rmGUA4Gjx7cMflotxFhx-16" value="" style="sketch=0;points=[[0,0,0],[0.25,0,0],[0.5,0,0],[0.75,0,0],[1,0,0],[0,1,0],[0.25,1,0],[0.5,1,0],[0.75,1,0],[1,1,0],[0,0.25,0],[0,0.5,0],[0,0.75,0],[1,0.25,0],[1,0.5,0],[1,0.75,0]];outlineConnect=0;fontColor=#232F3E;gradientColor=#FF4F8B;gradientDirection=north;fillColor=#BC1356;strokeColor=#ffffff;dashed=0;verticalLabelPosition=bottom;verticalAlign=top;align=center;html=1;fontSize=12;fontStyle=0;aspect=fixed;shape=mxgraph.aws4.resourceIcon;resIcon=mxgraph.aws4.sqs;" parent="1" vertex="1">
          <mxGeometry x="-280" y="285" width="60" height="60" as="geometry" />
        </mxCell>
        <mxCell id="3yU_ad0grkevYIt1H6FK-8" style="edgeStyle=none;curved=1;rounded=0;orthogonalLoop=1;jettySize=auto;html=1;fontSize=12;startSize=8;endSize=8;fillColor=#d5e8d4;strokeColor=#82b366;exitX=0.5;exitY=0;exitDx=0;exitDy=0;exitPerimeter=0;entryX=0.5;entryY=1;entryDx=0;entryDy=0;entryPerimeter=0;" parent="1" source="rmGUA4Gjx7cMflotxFhx-22" target="rmGUA4Gjx7cMflotxFhx-28" edge="1">
          <mxGeometry relative="1" as="geometry">
            <mxPoint x="-210" y="210" as="targetPoint" />
          </mxGeometry>
        </mxCell>
        <mxCell id="rmGUA4Gjx7cMflotxFhx-22" value="" style="sketch=0;points=[[0,0,0],[0.25,0,0],[0.5,0,0],[0.75,0,0],[1,0,0],[0,1,0],[0.25,1,0],[0.5,1,0],[0.75,1,0],[1,1,0],[0,0.25,0],[0,0.5,0],[0,0.75,0],[1,0.25,0],[1,0.5,0],[1,0.75,0]];outlineConnect=0;fontColor=#232F3E;gradientColor=#F78E04;gradientDirection=north;fillColor=#D05C17;strokeColor=#ffffff;dashed=0;verticalLabelPosition=bottom;verticalAlign=top;align=center;html=1;fontSize=12;fontStyle=0;aspect=fixed;shape=mxgraph.aws4.resourceIcon;resIcon=mxgraph.aws4.lambda;" parent="1" vertex="1">
          <mxGeometry x="-190" y="285" width="60" height="60" as="geometry" />
        </mxCell>
        <mxCell id="rmGUA4Gjx7cMflotxFhx-32" value="Bulk Import" style="text;html=1;strokeColor=none;fillColor=none;align=center;verticalAlign=middle;whiteSpace=wrap;rounded=0;fontSize=16;" parent="1" vertex="1">
          <mxGeometry x="-212.5" y="100" width="105" height="30" as="geometry" />
        </mxCell>
        <mxCell id="rmGUA4Gjx7cMflotxFhx-33" value="" style="image;points=[];aspect=fixed;html=1;align=center;shadow=0;dashed=0;image=img/lib/allied_telesis/computer_and_terminals/Personal_Computer.svg;fontSize=16;" parent="1" vertex="1">
          <mxGeometry x="-622.8" y="385" width="45.6" height="61.800000000000004" as="geometry" />
        </mxCell>
        <mxCell id="rmGUA4Gjx7cMflotxFhx-34" value="Client Application" style="text;html=1;strokeColor=none;fillColor=none;align=center;verticalAlign=middle;whiteSpace=wrap;rounded=0;fontSize=16;" parent="1" vertex="1">
          <mxGeometry x="-630" y="465" width="60" height="30" as="geometry" />
        </mxCell>
        <mxCell id="rmGUA4Gjx7cMflotxFhx-35" value="" style="endArrow=classic;html=1;rounded=0;fontSize=12;startSize=6;endSize=6;curved=1;strokeWidth=1.5;" parent="1" target="rmGUA4Gjx7cMflotxFhx-106" edge="1">
          <mxGeometry width="50" height="50" relative="1" as="geometry">
            <mxPoint x="-550" y="400" as="sourcePoint" />
            <mxPoint x="-520" y="140" as="targetPoint" />
          </mxGeometry>
        </mxCell>
        <mxCell id="rmGUA4Gjx7cMflotxFhx-36" value="Job Queues&lt;br&gt;/ Batcher" style="text;html=1;strokeColor=none;fillColor=none;align=center;verticalAlign=middle;whiteSpace=wrap;rounded=0;fontSize=16;" parent="1" vertex="1">
          <mxGeometry x="-300" y="240" width="100" height="45" as="geometry" />
        </mxCell>
        <mxCell id="rmGUA4Gjx7cMflotxFhx-44" style="edgeStyle=none;curved=1;rounded=0;orthogonalLoop=1;jettySize=auto;html=1;fontSize=12;startSize=6;endSize=6;exitX=1;exitY=0.5;exitDx=0;exitDy=0;exitPerimeter=0;startArrow=classic;startFill=1;entryX=0.028;entryY=0.78;entryDx=0;entryDy=0;entryPerimeter=0;strokeWidth=1.5;" parent="1" source="rmGUA4Gjx7cMflotxFhx-40" target="rmGUA4Gjx7cMflotxFhx-1" edge="1">
          <mxGeometry relative="1" as="geometry" />
        </mxCell>
        <mxCell id="3yU_ad0grkevYIt1H6FK-2" style="edgeStyle=none;curved=1;rounded=0;orthogonalLoop=1;jettySize=auto;html=1;entryX=0.694;entryY=0.639;entryDx=0;entryDy=0;entryPerimeter=0;fontSize=12;startSize=6;endSize=6;strokeWidth=1.5;" parent="1" source="rmGUA4Gjx7cMflotxFhx-40" edge="1">
          <mxGeometry relative="1" as="geometry">
            <mxPoint x="-140.15999999999985" y="685.04" as="targetPoint" />
          </mxGeometry>
        </mxCell>
        <mxCell id="rmGUA4Gjx7cMflotxFhx-40" value="" style="sketch=0;points=[[0,0,0],[0.25,0,0],[0.5,0,0],[0.75,0,0],[1,0,0],[0,1,0],[0.25,1,0],[0.5,1,0],[0.75,1,0],[1,1,0],[0,0.25,0],[0,0.5,0],[0,0.75,0],[1,0.25,0],[1,0.5,0],[1,0.75,0]];outlineConnect=0;fontColor=#232F3E;gradientColor=#F78E04;gradientDirection=north;fillColor=#D05C17;strokeColor=#ffffff;dashed=0;verticalLabelPosition=bottom;verticalAlign=top;align=center;html=1;fontSize=12;fontStyle=0;aspect=fixed;shape=mxgraph.aws4.resourceIcon;resIcon=mxgraph.aws4.lambda;" parent="1" vertex="1">
          <mxGeometry x="-170" y="545" width="60" height="60" as="geometry" />
        </mxCell>
        <mxCell id="3yU_ad0grkevYIt1H6FK-1" style="edgeStyle=none;curved=1;rounded=0;orthogonalLoop=1;jettySize=auto;html=1;exitX=1;exitY=0.5;exitDx=0;exitDy=0;exitPerimeter=0;fontSize=12;startSize=8;endSize=8;fillColor=#d5e8d4;strokeColor=#82b366;" parent="1" source="rmGUA4Gjx7cMflotxFhx-41" target="rmGUA4Gjx7cMflotxFhx-40" edge="1">
          <mxGeometry relative="1" as="geometry" />
        </mxCell>
        <mxCell id="rmGUA4Gjx7cMflotxFhx-41" value="" style="sketch=0;points=[[0,0,0],[0.25,0,0],[0.5,0,0],[0.75,0,0],[1,0,0],[0,1,0],[0.25,1,0],[0.5,1,0],[0.75,1,0],[1,1,0],[0,0.25,0],[0,0.5,0],[0,0.75,0],[1,0.25,0],[1,0.5,0],[1,0.75,0]];outlineConnect=0;fontColor=#232F3E;gradientColor=#FF4F8B;gradientDirection=north;fillColor=#BC1356;strokeColor=#ffffff;dashed=0;verticalLabelPosition=bottom;verticalAlign=top;align=center;html=1;fontSize=12;fontStyle=0;aspect=fixed;shape=mxgraph.aws4.resourceIcon;resIcon=mxgraph.aws4.sqs;" parent="1" vertex="1">
          <mxGeometry x="-320" y="520" width="60" height="60" as="geometry" />
        </mxCell>
        <mxCell id="rmGUA4Gjx7cMflotxFhx-45" value="" style="sketch=0;points=[[0,0,0],[0.25,0,0],[0.5,0,0],[0.75,0,0],[1,0,0],[0,1,0],[0.25,1,0],[0.5,1,0],[0.75,1,0],[1,1,0],[0,0.25,0],[0,0.5,0],[0,0.75,0],[1,0.25,0],[1,0.5,0],[1,0.75,0]];outlineConnect=0;fontColor=#232F3E;gradientColor=#FF4F8B;gradientDirection=north;fillColor=#BC1356;strokeColor=#ffffff;dashed=0;verticalLabelPosition=bottom;verticalAlign=top;align=center;html=1;fontSize=12;fontStyle=0;aspect=fixed;shape=mxgraph.aws4.resourceIcon;resIcon=mxgraph.aws4.api_gateway;" parent="1" vertex="1">
          <mxGeometry x="-320" y="620" width="60" height="60" as="geometry" />
        </mxCell>
        <mxCell id="rmGUA4Gjx7cMflotxFhx-46" value="" style="endArrow=classic;startArrow=classic;html=1;rounded=0;fontSize=12;startSize=6;endSize=6;curved=1;exitX=1;exitY=0.5;exitDx=0;exitDy=0;exitPerimeter=0;strokeWidth=1.5;" parent="1" source="rmGUA4Gjx7cMflotxFhx-45" target="rmGUA4Gjx7cMflotxFhx-40" edge="1">
          <mxGeometry width="50" height="50" relative="1" as="geometry">
            <mxPoint y="600" as="sourcePoint" />
            <mxPoint x="350" y="325" as="targetPoint" />
          </mxGeometry>
        </mxCell>
        <mxCell id="rmGUA4Gjx7cMflotxFhx-47" value="" style="endArrow=classic;startArrow=classic;html=1;rounded=0;fontSize=12;startSize=6;endSize=6;curved=1;entryX=0;entryY=0.5;entryDx=0;entryDy=0;entryPerimeter=0;strokeWidth=1.5;" parent="1" target="rmGUA4Gjx7cMflotxFhx-45" edge="1">
          <mxGeometry width="50" height="50" relative="1" as="geometry">
            <mxPoint x="-550" y="470" as="sourcePoint" />
            <mxPoint x="-240" y="480" as="targetPoint" />
          </mxGeometry>
        </mxCell>
        <mxCell id="rmGUA4Gjx7cMflotxFhx-79" style="edgeStyle=none;curved=1;rounded=0;orthogonalLoop=1;jettySize=auto;html=1;fontSize=12;startSize=8;endSize=8;fillColor=#d5e8d4;strokeColor=#82b366;" parent="1" source="rmGUA4Gjx7cMflotxFhx-49" target="rmGUA4Gjx7cMflotxFhx-68" edge="1">
          <mxGeometry relative="1" as="geometry" />
        </mxCell>
        <mxCell id="rmGUA4Gjx7cMflotxFhx-49" value="" style="sketch=0;points=[[0,0,0],[0.25,0,0],[0.5,0,0],[0.75,0,0],[1,0,0],[0,1,0],[0.25,1,0],[0.5,1,0],[0.75,1,0],[1,1,0],[0,0.25,0],[0,0.5,0],[0,0.75,0],[1,0.25,0],[1,0.5,0],[1,0.75,0]];points=[[0,0,0],[0.25,0,0],[0.5,0,0],[0.75,0,0],[1,0,0],[0,1,0],[0.25,1,0],[0.5,1,0],[0.75,1,0],[1,1,0],[0,0.25,0],[0,0.5,0],[0,0.75,0],[1,0.25,0],[1,0.5,0],[1,0.75,0]];outlineConnect=0;fontColor=#232F3E;gradientColor=#F34482;gradientDirection=north;fillColor=#BC1356;strokeColor=#ffffff;dashed=0;verticalLabelPosition=bottom;verticalAlign=top;align=center;html=1;fontSize=12;fontStyle=0;aspect=fixed;shape=mxgraph.aws4.resourceIcon;resIcon=mxgraph.aws4.cloudwatch_2;" parent="1" vertex="1">
          <mxGeometry x="790" y="365" width="60" height="60" as="geometry" />
        </mxCell>
        <mxCell id="rmGUA4Gjx7cMflotxFhx-55" value="" style="sketch=0;points=[[0,0,0],[0.25,0,0],[0.5,0,0],[0.75,0,0],[1,0,0],[0,1,0],[0.25,1,0],[0.5,1,0],[0.75,1,0],[1,1,0],[0,0.25,0],[0,0.5,0],[0,0.75,0],[1,0.25,0],[1,0.5,0],[1,0.75,0]];outlineConnect=0;fontColor=#232F3E;gradientColor=#4D72F3;gradientDirection=north;fillColor=#3334B9;strokeColor=#ffffff;dashed=0;verticalLabelPosition=bottom;verticalAlign=top;align=center;html=1;fontSize=12;fontStyle=0;aspect=fixed;shape=mxgraph.aws4.resourceIcon;resIcon=mxgraph.aws4.dynamodb;" parent="1" vertex="1">
          <mxGeometry x="175" y="365" width="60" height="60" as="geometry" />
        </mxCell>
        <mxCell id="rmGUA4Gjx7cMflotxFhx-57" value="State Store" style="text;html=1;strokeColor=none;fillColor=none;align=center;verticalAlign=middle;whiteSpace=wrap;rounded=0;fontSize=16;" parent="1" vertex="1">
          <mxGeometry x="150" y="335" width="110" height="30" as="geometry" />
        </mxCell>
        <mxCell id="rmGUA4Gjx7cMflotxFhx-58" value="" style="sketch=0;points=[[0,0,0],[0.25,0,0],[0.5,0,0],[0.75,0,0],[1,0,0],[0,1,0],[0.25,1,0],[0.5,1,0],[0.75,1,0],[1,1,0],[0,0.25,0],[0,0.5,0],[0,0.75,0],[1,0.25,0],[1,0.5,0],[1,0.75,0]];outlineConnect=0;fontColor=#232F3E;gradientColor=#60A337;gradientDirection=north;fillColor=#277116;strokeColor=#ffffff;dashed=0;verticalLabelPosition=bottom;verticalAlign=top;align=center;html=1;fontSize=12;fontStyle=0;aspect=fixed;shape=mxgraph.aws4.resourceIcon;resIcon=mxgraph.aws4.s3;" parent="1" vertex="1">
          <mxGeometry x="175" y="475" width="60" height="60" as="geometry" />
        </mxCell>
        <mxCell id="rmGUA4Gjx7cMflotxFhx-63" value="Table Data" style="text;html=1;strokeColor=none;fillColor=none;align=center;verticalAlign=middle;whiteSpace=wrap;rounded=0;fontSize=16;" parent="1" vertex="1">
          <mxGeometry x="150" y="445" width="110" height="30" as="geometry" />
        </mxCell>
        <mxCell id="rmGUA4Gjx7cMflotxFhx-74" style="edgeStyle=none;curved=1;rounded=0;orthogonalLoop=1;jettySize=auto;html=1;fontSize=12;startSize=8;endSize=8;fillColor=#d5e8d4;strokeColor=#82b366;" parent="1" source="Wp74-Qy4HKATFHPHKayA-27" target="rmGUA4Gjx7cMflotxFhx-66" edge="1">
          <mxGeometry relative="1" as="geometry">
            <mxPoint x="680" y="505" as="sourcePoint" />
          </mxGeometry>
        </mxCell>
        <mxCell id="rmGUA4Gjx7cMflotxFhx-75" style="edgeStyle=none;curved=1;rounded=0;orthogonalLoop=1;jettySize=auto;html=1;fontSize=12;startSize=8;endSize=8;fillColor=#d5e8d4;strokeColor=#82b366;" parent="1" source="rmGUA4Gjx7cMflotxFhx-66" target="rmGUA4Gjx7cMflotxFhx-67" edge="1">
          <mxGeometry relative="1" as="geometry" />
        </mxCell>
        <mxCell id="rmGUA4Gjx7cMflotxFhx-66" value="" style="sketch=0;points=[[0,0,0],[0.25,0,0],[0.5,0,0],[0.75,0,0],[1,0,0],[0,1,0],[0.25,1,0],[0.5,1,0],[0.75,1,0],[1,1,0],[0,0.25,0],[0,0.5,0],[0,0.75,0],[1,0.25,0],[1,0.5,0],[1,0.75,0]];outlineConnect=0;fontColor=#232F3E;gradientColor=#FF4F8B;gradientDirection=north;fillColor=#BC1356;strokeColor=#ffffff;dashed=0;verticalLabelPosition=bottom;verticalAlign=top;align=center;html=1;fontSize=12;fontStyle=0;aspect=fixed;shape=mxgraph.aws4.resourceIcon;resIcon=mxgraph.aws4.sqs;" parent="1" vertex="1">
          <mxGeometry x="570" y="475" width="60" height="60" as="geometry" />
        </mxCell>
        <mxCell id="rmGUA4Gjx7cMflotxFhx-71" style="edgeStyle=none;curved=1;rounded=0;orthogonalLoop=1;jettySize=auto;html=1;fontSize=12;startSize=8;endSize=8;startArrow=classic;startFill=1;exitX=0;exitY=0.5;exitDx=0;exitDy=0;exitPerimeter=0;fillColor=#d5e8d4;strokeColor=#82b366;" parent="1" source="rmGUA4Gjx7cMflotxFhx-67" target="rmGUA4Gjx7cMflotxFhx-1" edge="1">
          <mxGeometry relative="1" as="geometry" />
        </mxCell>
        <mxCell id="rmGUA4Gjx7cMflotxFhx-67" value="" style="sketch=0;points=[[0,0,0],[0.25,0,0],[0.5,0,0],[0.75,0,0],[1,0,0],[0,1,0],[0.25,1,0],[0.5,1,0],[0.75,1,0],[1,1,0],[0,0.25,0],[0,0.5,0],[0,0.75,0],[1,0.25,0],[1,0.5,0],[1,0.75,0]];outlineConnect=0;fontColor=#232F3E;gradientColor=#F78E04;gradientDirection=north;fillColor=#D05C17;strokeColor=#ffffff;dashed=0;verticalLabelPosition=bottom;verticalAlign=top;align=center;html=1;fontSize=12;fontStyle=0;aspect=fixed;shape=mxgraph.aws4.resourceIcon;resIcon=mxgraph.aws4.lambda;" parent="1" vertex="1">
          <mxGeometry x="470" y="475" width="60" height="60" as="geometry" />
        </mxCell>
        <mxCell id="rmGUA4Gjx7cMflotxFhx-72" style="edgeStyle=none;curved=1;rounded=0;orthogonalLoop=1;jettySize=auto;html=1;fontSize=12;startSize=8;endSize=8;fillColor=#d5e8d4;strokeColor=#82b366;" parent="1" source="rmGUA4Gjx7cMflotxFhx-68" target="rmGUA4Gjx7cMflotxFhx-69" edge="1">
          <mxGeometry relative="1" as="geometry">
            <mxPoint x="680" y="395" as="sourcePoint" />
          </mxGeometry>
        </mxCell>
        <mxCell id="rmGUA4Gjx7cMflotxFhx-68" value="" style="sketch=0;points=[[0,0,0],[0.25,0,0],[0.5,0,0],[0.75,0,0],[1,0,0],[0,1,0],[0.25,1,0],[0.5,1,0],[0.75,1,0],[1,1,0],[0,0.25,0],[0,0.5,0],[0,0.75,0],[1,0.25,0],[1,0.5,0],[1,0.75,0]];outlineConnect=0;fontColor=#232F3E;gradientColor=#F78E04;gradientDirection=north;fillColor=#D05C17;strokeColor=#ffffff;dashed=0;verticalLabelPosition=bottom;verticalAlign=top;align=center;html=1;fontSize=12;fontStyle=0;aspect=fixed;shape=mxgraph.aws4.resourceIcon;resIcon=mxgraph.aws4.lambda;" parent="1" vertex="1">
          <mxGeometry x="690" y="365" width="60" height="60" as="geometry" />
        </mxCell>
        <mxCell id="rmGUA4Gjx7cMflotxFhx-73" style="edgeStyle=none;curved=1;rounded=0;orthogonalLoop=1;jettySize=auto;html=1;fontSize=12;startSize=8;endSize=8;fillColor=#d5e8d4;strokeColor=#82b366;" parent="1" source="rmGUA4Gjx7cMflotxFhx-69" target="rmGUA4Gjx7cMflotxFhx-70" edge="1">
          <mxGeometry relative="1" as="geometry" />
        </mxCell>
        <mxCell id="rmGUA4Gjx7cMflotxFhx-69" value="" style="sketch=0;points=[[0,0,0],[0.25,0,0],[0.5,0,0],[0.75,0,0],[1,0,0],[0,1,0],[0.25,1,0],[0.5,1,0],[0.75,1,0],[1,1,0],[0,0.25,0],[0,0.5,0],[0,0.75,0],[1,0.25,0],[1,0.5,0],[1,0.75,0]];outlineConnect=0;fontColor=#232F3E;gradientColor=#FF4F8B;gradientDirection=north;fillColor=#BC1356;strokeColor=#ffffff;dashed=0;verticalLabelPosition=bottom;verticalAlign=top;align=center;html=1;fontSize=12;fontStyle=0;aspect=fixed;shape=mxgraph.aws4.resourceIcon;resIcon=mxgraph.aws4.sqs;" parent="1" vertex="1">
          <mxGeometry x="570" y="365" width="60" height="60" as="geometry" />
        </mxCell>
        <mxCell id="rmGUA4Gjx7cMflotxFhx-70" value="" style="sketch=0;points=[[0,0,0],[0.25,0,0],[0.5,0,0],[0.75,0,0],[1,0,0],[0,1,0],[0.25,1,0],[0.5,1,0],[0.75,1,0],[1,1,0],[0,0.25,0],[0,0.5,0],[0,0.75,0],[1,0.25,0],[1,0.5,0],[1,0.75,0]];outlineConnect=0;fontColor=#232F3E;gradientColor=#F78E04;gradientDirection=north;fillColor=#D05C17;strokeColor=#ffffff;dashed=0;verticalLabelPosition=bottom;verticalAlign=top;align=center;html=1;fontSize=12;fontStyle=0;aspect=fixed;shape=mxgraph.aws4.resourceIcon;resIcon=mxgraph.aws4.fargate;" parent="1" vertex="1">
          <mxGeometry x="470" y="365" width="60" height="60" as="geometry" />
        </mxCell>
        <mxCell id="rmGUA4Gjx7cMflotxFhx-11" style="edgeStyle=none;curved=1;rounded=0;orthogonalLoop=1;jettySize=auto;html=1;fontSize=12;startSize=6;endSize=6;startArrow=classic;startFill=1;entryX=0;entryY=0.5;entryDx=0;entryDy=0;entryPerimeter=0;strokeWidth=1.5;" parent="1" source="rmGUA4Gjx7cMflotxFhx-1" target="rmGUA4Gjx7cMflotxFhx-70" edge="1">
          <mxGeometry relative="1" as="geometry">
            <mxPoint x="550" y="440" as="targetPoint" />
          </mxGeometry>
        </mxCell>
        <mxCell id="rmGUA4Gjx7cMflotxFhx-77" value="Compaction" style="text;html=1;strokeColor=none;fillColor=none;align=center;verticalAlign=middle;whiteSpace=wrap;rounded=0;fontSize=16;" parent="1" vertex="1">
          <mxGeometry x="470" y="335" width="160" height="30" as="geometry" />
        </mxCell>
        <mxCell id="rmGUA4Gjx7cMflotxFhx-78" value="Partition Splitting / GC" style="text;html=1;strokeColor=none;fillColor=none;align=center;verticalAlign=middle;whiteSpace=wrap;rounded=0;fontSize=16;" parent="1" vertex="1">
          <mxGeometry x="460" y="445" width="180" height="30" as="geometry" />
        </mxCell>
        <mxCell id="rmGUA4Gjx7cMflotxFhx-81" value="Schedule Rules" style="text;html=1;strokeColor=none;fillColor=none;align=center;verticalAlign=middle;whiteSpace=wrap;rounded=0;fontSize=16;" parent="1" vertex="1">
          <mxGeometry x="690" y="335" width="160" height="30" as="geometry" />
        </mxCell>
        <mxCell id="rmGUA4Gjx7cMflotxFhx-82" value="Data Maintenance" style="text;html=1;strokeColor=none;fillColor=none;align=center;verticalAlign=middle;whiteSpace=wrap;rounded=0;fontSize=18;" parent="1" vertex="1">
          <mxGeometry x="535" y="565" width="250" height="30" as="geometry" />
        </mxCell>
        <mxCell id="rmGUA4Gjx7cMflotxFhx-85" value="" style="sketch=0;points=[[0,0,0],[0.25,0,0],[0.5,0,0],[0.75,0,0],[1,0,0],[0,1,0],[0.25,1,0],[0.5,1,0],[0.75,1,0],[1,1,0],[0,0.25,0],[0,0.5,0],[0,0.75,0],[1,0.25,0],[1,0.5,0],[1,0.75,0]];outlineConnect=0;fontColor=#232F3E;gradientColor=#FF4F8B;gradientDirection=north;fillColor=#BC1356;strokeColor=#ffffff;dashed=0;verticalLabelPosition=bottom;verticalAlign=top;align=center;html=1;fontSize=12;fontStyle=0;aspect=fixed;shape=mxgraph.aws4.resourceIcon;resIcon=mxgraph.aws4.sqs;" parent="1" vertex="1">
          <mxGeometry x="260" y="700" width="40" height="40" as="geometry" />
        </mxCell>
        <mxCell id="rmGUA4Gjx7cMflotxFhx-86" value="SQS" style="text;html=1;strokeColor=none;fillColor=none;align=left;verticalAlign=middle;whiteSpace=wrap;rounded=0;fontSize=16;" parent="1" vertex="1">
          <mxGeometry x="310" y="705" width="60" height="30" as="geometry" />
        </mxCell>
        <mxCell id="rmGUA4Gjx7cMflotxFhx-87" value="" style="sketch=0;points=[[0,0,0],[0.25,0,0],[0.5,0,0],[0.75,0,0],[1,0,0],[0,1,0],[0.25,1,0],[0.5,1,0],[0.75,1,0],[1,1,0],[0,0.25,0],[0,0.5,0],[0,0.75,0],[1,0.25,0],[1,0.5,0],[1,0.75,0]];outlineConnect=0;fontColor=#232F3E;gradientColor=#FF4F8B;gradientDirection=north;fillColor=#BC1356;strokeColor=#ffffff;dashed=0;verticalLabelPosition=bottom;verticalAlign=top;align=center;html=1;fontSize=12;fontStyle=0;aspect=fixed;shape=mxgraph.aws4.resourceIcon;resIcon=mxgraph.aws4.api_gateway;" parent="1" vertex="1">
          <mxGeometry x="260" y="750" width="40" height="40" as="geometry" />
        </mxCell>
        <mxCell id="rmGUA4Gjx7cMflotxFhx-89" value="API Gateway" style="text;html=1;strokeColor=none;fillColor=none;align=left;verticalAlign=middle;whiteSpace=wrap;rounded=0;fontSize=16;" parent="1" vertex="1">
          <mxGeometry x="310" y="755" width="110" height="30" as="geometry" />
        </mxCell>
        <mxCell id="rmGUA4Gjx7cMflotxFhx-90" value="" style="sketch=0;points=[[0,0,0],[0.25,0,0],[0.5,0,0],[0.75,0,0],[1,0,0],[0,1,0],[0.25,1,0],[0.5,1,0],[0.75,1,0],[1,1,0],[0,0.25,0],[0,0.5,0],[0,0.75,0],[1,0.25,0],[1,0.5,0],[1,0.75,0]];outlineConnect=0;fontColor=#232F3E;gradientColor=#F78E04;gradientDirection=north;fillColor=#D05C17;strokeColor=#ffffff;dashed=0;verticalLabelPosition=bottom;verticalAlign=top;align=center;html=1;fontSize=12;fontStyle=0;aspect=fixed;shape=mxgraph.aws4.resourceIcon;resIcon=mxgraph.aws4.lambda;" parent="1" vertex="1">
          <mxGeometry x="480" y="700" width="40" height="40" as="geometry" />
        </mxCell>
        <mxCell id="rmGUA4Gjx7cMflotxFhx-91" value="" style="sketch=0;points=[[0,0,0],[0.25,0,0],[0.5,0,0],[0.75,0,0],[1,0,0],[0,1,0],[0.25,1,0],[0.5,1,0],[0.75,1,0],[1,1,0],[0,0.25,0],[0,0.5,0],[0,0.75,0],[1,0.25,0],[1,0.5,0],[1,0.75,0]];points=[[0,0,0],[0.25,0,0],[0.5,0,0],[0.75,0,0],[1,0,0],[0,1,0],[0.25,1,0],[0.5,1,0],[0.75,1,0],[1,1,0],[0,0.25,0],[0,0.5,0],[0,0.75,0],[1,0.25,0],[1,0.5,0],[1,0.75,0]];outlineConnect=0;fontColor=#232F3E;gradientColor=#F34482;gradientDirection=north;fillColor=#BC1356;strokeColor=#ffffff;dashed=0;verticalLabelPosition=bottom;verticalAlign=top;align=center;html=1;fontSize=12;fontStyle=0;aspect=fixed;shape=mxgraph.aws4.resourceIcon;resIcon=mxgraph.aws4.cloudwatch_2;" parent="1" vertex="1">
          <mxGeometry x="260" y="800" width="40" height="40" as="geometry" />
        </mxCell>
        <mxCell id="rmGUA4Gjx7cMflotxFhx-92" value="CloudWatch" style="text;html=1;strokeColor=none;fillColor=none;align=left;verticalAlign=middle;whiteSpace=wrap;rounded=0;fontSize=16;" parent="1" vertex="1">
          <mxGeometry x="310" y="805" width="110" height="30" as="geometry" />
        </mxCell>
        <mxCell id="rmGUA4Gjx7cMflotxFhx-93" value="Lambda" style="text;html=1;strokeColor=none;fillColor=none;align=left;verticalAlign=middle;whiteSpace=wrap;rounded=0;fontSize=16;" parent="1" vertex="1">
          <mxGeometry x="530" y="705" width="110" height="30" as="geometry" />
        </mxCell>
        <mxCell id="rmGUA4Gjx7cMflotxFhx-94" value="" style="sketch=0;points=[[0,0,0],[0.25,0,0],[0.5,0,0],[0.75,0,0],[1,0,0],[0,1,0],[0.25,1,0],[0.5,1,0],[0.75,1,0],[1,1,0],[0,0.25,0],[0,0.5,0],[0,0.75,0],[1,0.25,0],[1,0.5,0],[1,0.75,0]];outlineConnect=0;fontColor=#232F3E;gradientColor=#F78E04;gradientDirection=north;fillColor=#D05C17;strokeColor=#ffffff;dashed=0;verticalLabelPosition=bottom;verticalAlign=top;align=center;html=1;fontSize=12;fontStyle=0;aspect=fixed;shape=mxgraph.aws4.resourceIcon;resIcon=mxgraph.aws4.fargate;" parent="1" vertex="1">
          <mxGeometry x="480" y="750" width="40" height="40" as="geometry" />
        </mxCell>
        <mxCell id="rmGUA4Gjx7cMflotxFhx-95" value="Fargate" style="text;html=1;strokeColor=none;fillColor=none;align=left;verticalAlign=middle;whiteSpace=wrap;rounded=0;fontSize=16;" parent="1" vertex="1">
          <mxGeometry x="530" y="755" width="110" height="30" as="geometry" />
        </mxCell>
        <mxCell id="rmGUA4Gjx7cMflotxFhx-96" value="" style="sketch=0;points=[[0,0,0],[0.25,0,0],[0.5,0,0],[0.75,0,0],[1,0,0],[0,1,0],[0.25,1,0],[0.5,1,0],[0.75,1,0],[1,1,0],[0,0.25,0],[0,0.5,0],[0,0.75,0],[1,0.25,0],[1,0.5,0],[1,0.75,0]];outlineConnect=0;fontColor=#232F3E;gradientColor=#945DF2;gradientDirection=north;fillColor=#5A30B5;strokeColor=#ffffff;dashed=0;verticalLabelPosition=bottom;verticalAlign=top;align=center;html=1;fontSize=12;fontStyle=0;aspect=fixed;shape=mxgraph.aws4.resourceIcon;resIcon=mxgraph.aws4.emr;" parent="1" vertex="1">
          <mxGeometry x="480" y="800" width="40" height="40" as="geometry" />
        </mxCell>
        <mxCell id="rmGUA4Gjx7cMflotxFhx-97" value="Elastic MapReduce" style="text;html=1;strokeColor=none;fillColor=none;align=left;verticalAlign=middle;whiteSpace=wrap;rounded=0;fontSize=16;" parent="1" vertex="1">
          <mxGeometry x="530" y="805" width="150" height="30" as="geometry" />
        </mxCell>
        <mxCell id="rmGUA4Gjx7cMflotxFhx-100" value="" style="sketch=0;points=[[0,0,0],[0.25,0,0],[0.5,0,0],[0.75,0,0],[1,0,0],[0,1,0],[0.25,1,0],[0.5,1,0],[0.75,1,0],[1,1,0],[0,0.25,0],[0,0.5,0],[0,0.75,0],[1,0.25,0],[1,0.5,0],[1,0.75,0]];outlineConnect=0;fontColor=#232F3E;gradientColor=#4D72F3;gradientDirection=north;fillColor=#3334B9;strokeColor=#ffffff;dashed=0;verticalLabelPosition=bottom;verticalAlign=top;align=center;html=1;fontSize=12;fontStyle=0;aspect=fixed;shape=mxgraph.aws4.resourceIcon;resIcon=mxgraph.aws4.dynamodb;" parent="1" vertex="1">
          <mxGeometry x="700" y="750" width="40" height="40" as="geometry" />
        </mxCell>
        <mxCell id="rmGUA4Gjx7cMflotxFhx-101" value="DynamoDB" style="text;html=1;strokeColor=none;fillColor=none;align=left;verticalAlign=middle;whiteSpace=wrap;rounded=0;fontSize=16;" parent="1" vertex="1">
          <mxGeometry x="750" y="755" width="150" height="30" as="geometry" />
        </mxCell>
        <mxCell id="rmGUA4Gjx7cMflotxFhx-102" value="" style="sketch=0;points=[[0,0,0],[0.25,0,0],[0.5,0,0],[0.75,0,0],[1,0,0],[0,1,0],[0.25,1,0],[0.5,1,0],[0.75,1,0],[1,1,0],[0,0.25,0],[0,0.5,0],[0,0.75,0],[1,0.25,0],[1,0.5,0],[1,0.75,0]];outlineConnect=0;fontColor=#232F3E;gradientColor=#60A337;gradientDirection=north;fillColor=#277116;strokeColor=#ffffff;dashed=0;verticalLabelPosition=bottom;verticalAlign=top;align=center;html=1;fontSize=12;fontStyle=0;aspect=fixed;shape=mxgraph.aws4.resourceIcon;resIcon=mxgraph.aws4.s3;" parent="1" vertex="1">
          <mxGeometry x="700" y="700" width="40" height="40" as="geometry" />
        </mxCell>
        <mxCell id="rmGUA4Gjx7cMflotxFhx-103" value="S3" style="text;html=1;strokeColor=none;fillColor=none;align=left;verticalAlign=middle;whiteSpace=wrap;rounded=0;fontSize=16;" parent="1" vertex="1">
          <mxGeometry x="750" y="705" width="150" height="30" as="geometry" />
        </mxCell>
        <mxCell id="rmGUA4Gjx7cMflotxFhx-106" value="" style="sketch=0;points=[[0,0,0],[0.25,0,0],[0.5,0,0],[0.75,0,0],[1,0,0],[0,1,0],[0.25,1,0],[0.5,1,0],[0.75,1,0],[1,1,0],[0,0.25,0],[0,0.5,0],[0,0.75,0],[1,0.25,0],[1,0.5,0],[1,0.75,0]];outlineConnect=0;fontColor=#232F3E;gradientColor=#60A337;gradientDirection=north;fillColor=#277116;strokeColor=#ffffff;dashed=0;verticalLabelPosition=bottom;verticalAlign=top;align=center;html=1;fontSize=12;fontStyle=0;aspect=fixed;shape=mxgraph.aws4.resourceIcon;resIcon=mxgraph.aws4.s3;" parent="1" vertex="1">
          <mxGeometry x="-480" y="179.99999999999997" width="60" height="60" as="geometry" />
        </mxCell>
        <mxCell id="rmGUA4Gjx7cMflotxFhx-107" value="Source Data" style="text;html=1;strokeColor=none;fillColor=none;align=center;verticalAlign=middle;whiteSpace=wrap;rounded=0;fontSize=16;" parent="1" vertex="1">
          <mxGeometry x="-500" y="150" width="100" height="30" as="geometry" />
        </mxCell>
        <mxCell id="rmGUA4Gjx7cMflotxFhx-110" value="" style="endArrow=classic;html=1;rounded=0;fontSize=12;startSize=8;endSize=8;curved=1;fillColor=#d5e8d4;strokeColor=#82b366;strokeWidth=1;entryX=0;entryY=0.5;entryDx=0;entryDy=0;entryPerimeter=0;" parent="1" target="rmGUA4Gjx7cMflotxFhx-16" edge="1">
          <mxGeometry width="50" height="50" relative="1" as="geometry">
            <mxPoint x="-550" y="410" as="sourcePoint" />
            <mxPoint x="-300" y="280" as="targetPoint" />
          </mxGeometry>
        </mxCell>
        <mxCell id="rmGUA4Gjx7cMflotxFhx-115" value="Legend" style="text;html=1;strokeColor=none;fillColor=none;align=left;verticalAlign=middle;whiteSpace=wrap;rounded=0;fontSize=18;" parent="1" vertex="1">
          <mxGeometry x="50" y="650" width="60" height="30" as="geometry" />
        </mxCell>
        <mxCell id="rmGUA4Gjx7cMflotxFhx-116" value="" style="curved=1;endArrow=classic;html=1;rounded=0;fontSize=12;startSize=6;endSize=6;startArrow=classic;startFill=1;strokeWidth=1.5;" parent="1" target="rmGUA4Gjx7cMflotxFhx-1" edge="1">
          <mxGeometry width="50" height="50" relative="1" as="geometry">
            <mxPoint x="-550" y="440" as="sourcePoint" />
            <mxPoint x="150" y="300" as="targetPoint" />
            <Array as="points">
              <mxPoint x="-240" y="450" />
            </Array>
          </mxGeometry>
        </mxCell>
        <mxCell id="rmGUA4Gjx7cMflotxFhx-117" value="" style="sketch=0;points=[[0,0,0],[0.25,0,0],[0.5,0,0],[0.75,0,0],[1,0,0],[0,1,0],[0.25,1,0],[0.5,1,0],[0.75,1,0],[1,1,0],[0,0.25,0],[0,0.5,0],[0,0.75,0],[1,0.25,0],[1,0.5,0],[1,0.75,0]];outlineConnect=0;fontColor=#232F3E;gradientColor=#FF4F8B;gradientDirection=north;fillColor=#BC1356;strokeColor=#ffffff;dashed=0;verticalLabelPosition=bottom;verticalAlign=top;align=center;html=1;fontSize=12;fontStyle=0;aspect=fixed;shape=mxgraph.aws4.resourceIcon;resIcon=mxgraph.aws4.sqs;" parent="1" vertex="1">
          <mxGeometry x="-320" y="720" width="60" height="60" as="geometry" />
        </mxCell>
        <mxCell id="rmGUA4Gjx7cMflotxFhx-118" value="Web Sockets" style="text;html=1;strokeColor=none;fillColor=none;align=center;verticalAlign=middle;whiteSpace=wrap;rounded=0;fontSize=16;" parent="1" vertex="1">
          <mxGeometry x="-345" y="590" width="110" height="30" as="geometry" />
        </mxCell>
        <mxCell id="rmGUA4Gjx7cMflotxFhx-119" value="Results &amp;amp; Tracking" style="text;html=1;strokeColor=none;fillColor=none;align=center;verticalAlign=middle;whiteSpace=wrap;rounded=0;fontSize=16;" parent="1" vertex="1">
          <mxGeometry x="-320" y="690" width="220" height="30" as="geometry" />
        </mxCell>
        <mxCell id="rmGUA4Gjx7cMflotxFhx-123" value="Requests" style="text;html=1;strokeColor=none;fillColor=none;align=center;verticalAlign=middle;whiteSpace=wrap;rounded=0;fontSize=16;" parent="1" vertex="1">
          <mxGeometry x="-342.5" y="490" width="105" height="30" as="geometry" />
        </mxCell>
        <mxCell id="rmGUA4Gjx7cMflotxFhx-124" value="" style="endArrow=classic;html=1;rounded=0;fontSize=12;startSize=6;endSize=6;curved=1;exitX=0.167;exitY=0.824;exitDx=0;exitDy=0;exitPerimeter=0;strokeWidth=1.5;" parent="1" source="rmGUA4Gjx7cMflotxFhx-5" edge="1">
          <mxGeometry width="50" height="50" relative="1" as="geometry">
            <mxPoint x="-461" y="640" as="sourcePoint" />
            <mxPoint x="-550" y="480" as="targetPoint" />
          </mxGeometry>
        </mxCell>
        <mxCell id="rmGUA4Gjx7cMflotxFhx-125" value="" style="sketch=0;points=[[0,0,0],[0.25,0,0],[0.5,0,0],[0.75,0,0],[1,0,0],[0,1,0],[0.25,1,0],[0.5,1,0],[0.75,1,0],[1,1,0],[0,0.25,0],[0,0.5,0],[0,0.75,0],[1,0.25,0],[1,0.5,0],[1,0.75,0]];outlineConnect=0;fontColor=#232F3E;gradientColor=#4D72F3;gradientDirection=north;fillColor=#3334B9;strokeColor=#ffffff;dashed=0;verticalLabelPosition=bottom;verticalAlign=top;align=center;html=1;fontSize=12;fontStyle=0;aspect=fixed;shape=mxgraph.aws4.resourceIcon;resIcon=mxgraph.aws4.dynamodb;" parent="1" vertex="1">
          <mxGeometry x="-240" y="720" width="60" height="60" as="geometry" />
        </mxCell>
        <mxCell id="rmGUA4Gjx7cMflotxFhx-126" value="" style="sketch=0;points=[[0,0,0],[0.25,0,0],[0.5,0,0],[0.75,0,0],[1,0,0],[0,1,0],[0.25,1,0],[0.5,1,0],[0.75,1,0],[1,1,0],[0,0.25,0],[0,0.5,0],[0,0.75,0],[1,0.25,0],[1,0.5,0],[1,0.75,0]];outlineConnect=0;fontColor=#232F3E;gradientColor=#60A337;gradientDirection=north;fillColor=#277116;strokeColor=#ffffff;dashed=0;verticalLabelPosition=bottom;verticalAlign=top;align=center;html=1;fontSize=12;fontStyle=0;aspect=fixed;shape=mxgraph.aws4.resourceIcon;resIcon=mxgraph.aws4.s3;" parent="1" vertex="1">
          <mxGeometry x="-160" y="720" width="60" height="60" as="geometry" />
        </mxCell>
        <mxCell id="3yU_ad0grkevYIt1H6FK-6" value="" style="edgeStyle=none;curved=1;rounded=0;orthogonalLoop=1;jettySize=auto;html=1;fontSize=12;startSize=8;endSize=8;" parent="1" target="rmGUA4Gjx7cMflotxFhx-28" edge="1">
          <mxGeometry relative="1" as="geometry">
            <mxPoint x="-175" y="140" as="sourcePoint" />
            <mxPoint x="75" y="270" as="targetPoint" />
          </mxGeometry>
        </mxCell>
        <mxCell id="rmGUA4Gjx7cMflotxFhx-28" value="" style="sketch=0;points=[[0,0,0],[0.25,0,0],[0.5,0,0],[0.75,0,0],[1,0,0],[0,1,0],[0.25,1,0],[0.5,1,0],[0.75,1,0],[1,1,0],[0,0.25,0],[0,0.5,0],[0,0.75,0],[1,0.25,0],[1,0.5,0],[1,0.75,0]];outlineConnect=0;fontColor=#232F3E;gradientColor=#945DF2;gradientDirection=north;fillColor=#5A30B5;strokeColor=#ffffff;dashed=0;verticalLabelPosition=bottom;verticalAlign=top;align=center;html=1;fontSize=12;fontStyle=0;aspect=fixed;shape=mxgraph.aws4.resourceIcon;resIcon=mxgraph.aws4.emr;" parent="1" vertex="1">
          <mxGeometry x="-190" y="130" width="60" height="60" as="geometry" />
        </mxCell>
        <mxCell id="3yU_ad0grkevYIt1H6FK-10" value="" style="rounded=1;whiteSpace=wrap;html=1;fontSize=16;fillColor=#f5f5f5;strokeColor=#666666;dashed=1;arcSize=50;fontColor=#333333;" parent="1" vertex="1">
          <mxGeometry x="40" y="700" width="40" height="40" as="geometry" />
        </mxCell>
        <mxCell id="3yU_ad0grkevYIt1H6FK-11" value="Sleeper internal" style="text;html=1;strokeColor=none;fillColor=none;align=left;verticalAlign=middle;whiteSpace=wrap;rounded=0;fontSize=16;" parent="1" vertex="1">
          <mxGeometry x="90" y="705" width="150" height="30" as="geometry" />
        </mxCell>
        <mxCell id="Wp74-Qy4HKATFHPHKayA-1" value="" style="endArrow=classic;html=1;rounded=0;fontSize=12;startSize=8;endSize=8;curved=1;fillColor=#d5e8d4;strokeColor=#82b366;" parent="1" edge="1">
          <mxGeometry width="50" height="50" relative="1" as="geometry">
            <mxPoint x="40" y="770" as="sourcePoint" />
            <mxPoint x="80" y="770" as="targetPoint" />
          </mxGeometry>
        </mxCell>
        <mxCell id="Wp74-Qy4HKATFHPHKayA-2" value="Control messages" style="text;html=1;strokeColor=none;fillColor=none;align=left;verticalAlign=middle;whiteSpace=wrap;rounded=0;fontSize=16;" parent="1" vertex="1">
          <mxGeometry x="90" y="755" width="150" height="30" as="geometry" />
        </mxCell>
        <mxCell id="Wp74-Qy4HKATFHPHKayA-4" value="" style="endArrow=classic;html=1;rounded=0;fontSize=12;startSize=6;endSize=6;curved=1;strokeWidth=1.5;" parent="1" edge="1">
          <mxGeometry width="50" height="50" relative="1" as="geometry">
            <mxPoint x="40" y="820" as="sourcePoint" />
            <mxPoint x="80" y="820" as="targetPoint" />
          </mxGeometry>
        </mxCell>
        <mxCell id="Wp74-Qy4HKATFHPHKayA-5" value="Data transmission" style="text;html=1;strokeColor=none;fillColor=none;align=left;verticalAlign=middle;whiteSpace=wrap;rounded=0;fontSize=16;" parent="1" vertex="1">
          <mxGeometry x="90" y="805" width="150" height="30" as="geometry" />
        </mxCell>
        <mxCell id="rmGUA4Gjx7cMflotxFhx-122" value="" style="endArrow=classic;html=1;rounded=0;fontSize=12;startSize=8;endSize=8;curved=1;entryX=0;entryY=0.5;entryDx=0;entryDy=0;entryPerimeter=0;strokeWidth=1;fillColor=#d5e8d4;strokeColor=#82b366;" parent="1" target="rmGUA4Gjx7cMflotxFhx-41" edge="1">
          <mxGeometry width="50" height="50" relative="1" as="geometry">
            <mxPoint x="-550" y="460" as="sourcePoint" />
            <mxPoint x="150" y="310" as="targetPoint" />
          </mxGeometry>
        </mxCell>
        <mxCell id="Wp74-Qy4HKATFHPHKayA-14" value="" style="endArrow=classic;html=1;rounded=0;fontSize=12;startSize=6;endSize=6;curved=1;strokeWidth=1.5;entryX=-0.003;entryY=0.317;entryDx=0;entryDy=0;entryPerimeter=0;" parent="1" source="rmGUA4Gjx7cMflotxFhx-106" target="rmGUA4Gjx7cMflotxFhx-3" edge="1">
          <mxGeometry width="50" height="50" relative="1" as="geometry">
            <mxPoint x="-540" y="410" as="sourcePoint" />
            <mxPoint x="-420" y="90" as="targetPoint" />
          </mxGeometry>
        </mxCell>
        <mxCell id="Wp74-Qy4HKATFHPHKayA-15" value="" style="endArrow=classic;html=1;rounded=0;fontSize=12;startSize=6;endSize=6;curved=1;strokeWidth=1.5;entryX=0.064;entryY=0.172;entryDx=0;entryDy=0;entryPerimeter=0;exitX=1.003;exitY=0.32;exitDx=0;exitDy=0;exitPerimeter=0;" parent="1" source="rmGUA4Gjx7cMflotxFhx-3" target="rmGUA4Gjx7cMflotxFhx-1" edge="1">
          <mxGeometry width="50" height="50" relative="1" as="geometry">
            <mxPoint x="80" y="150" as="sourcePoint" />
            <mxPoint x="-341" y="169" as="targetPoint" />
          </mxGeometry>
        </mxCell>
        <mxCell id="Wp74-Qy4HKATFHPHKayA-27" value="" style="sketch=0;points=[[0,0,0],[0.25,0,0],[0.5,0,0],[0.75,0,0],[1,0,0],[0,1,0],[0.25,1,0],[0.5,1,0],[0.75,1,0],[1,1,0],[0,0.25,0],[0,0.5,0],[0,0.75,0],[1,0.25,0],[1,0.5,0],[1,0.75,0]];outlineConnect=0;fontColor=#232F3E;gradientColor=#F78E04;gradientDirection=north;fillColor=#D05C17;strokeColor=#ffffff;dashed=0;verticalLabelPosition=bottom;verticalAlign=top;align=center;html=1;fontSize=12;fontStyle=0;aspect=fixed;shape=mxgraph.aws4.resourceIcon;resIcon=mxgraph.aws4.lambda;" parent="1" vertex="1">
          <mxGeometry x="690" y="475" width="60" height="60" as="geometry" />
        </mxCell>
        <mxCell id="Wp74-Qy4HKATFHPHKayA-28" value="" style="sketch=0;points=[[0,0,0],[0.25,0,0],[0.5,0,0],[0.75,0,0],[1,0,0],[0,1,0],[0.25,1,0],[0.5,1,0],[0.75,1,0],[1,1,0],[0,0.25,0],[0,0.5,0],[0,0.75,0],[1,0.25,0],[1,0.5,0],[1,0.75,0]];points=[[0,0,0],[0.25,0,0],[0.5,0,0],[0.75,0,0],[1,0,0],[0,1,0],[0.25,1,0],[0.5,1,0],[0.75,1,0],[1,1,0],[0,0.25,0],[0,0.5,0],[0,0.75,0],[1,0.25,0],[1,0.5,0],[1,0.75,0]];outlineConnect=0;fontColor=#232F3E;gradientColor=#F34482;gradientDirection=north;fillColor=#BC1356;strokeColor=#ffffff;dashed=0;verticalLabelPosition=bottom;verticalAlign=top;align=center;html=1;fontSize=12;fontStyle=0;aspect=fixed;shape=mxgraph.aws4.resourceIcon;resIcon=mxgraph.aws4.cloudwatch_2;" parent="1" vertex="1">
          <mxGeometry x="790" y="475" width="60" height="60" as="geometry" />
        </mxCell>
        <mxCell id="Wp74-Qy4HKATFHPHKayA-30" style="edgeStyle=none;curved=1;rounded=0;orthogonalLoop=1;jettySize=auto;html=1;fontSize=12;startSize=8;endSize=8;fillColor=#d5e8d4;strokeColor=#82b366;" parent="1" source="Wp74-Qy4HKATFHPHKayA-28" target="Wp74-Qy4HKATFHPHKayA-27" edge="1">
          <mxGeometry relative="1" as="geometry">
            <mxPoint x="800" y="405" as="sourcePoint" />
            <mxPoint x="760" y="405" as="targetPoint" />
          </mxGeometry>
        </mxCell>
        <mxCell id="Wp74-Qy4HKATFHPHKayA-31" value="" style="sketch=0;points=[[0,0,0],[0.25,0,0],[0.5,0,0],[0.75,0,0],[1,0,0],[0,1,0],[0.25,1,0],[0.5,1,0],[0.75,1,0],[1,1,0],[0,0.25,0],[0,0.5,0],[0,0.75,0],[1,0.25,0],[1,0.5,0],[1,0.75,0]];outlineConnect=0;fontColor=#232F3E;gradientColor=#F78E04;gradientDirection=north;fillColor=#D05C17;strokeColor=#ffffff;dashed=0;verticalLabelPosition=bottom;verticalAlign=top;align=center;html=1;fontSize=12;fontStyle=0;aspect=fixed;shape=mxgraph.aws4.resourceIcon;resIcon=mxgraph.aws4.fargate;" parent="1" vertex="1">
          <mxGeometry x="-280" y="130" width="60" height="60" as="geometry" />
        </mxCell>
        <mxCell id="Wp74-Qy4HKATFHPHKayA-32" value="Ingest" style="text;html=1;strokeColor=none;fillColor=none;align=center;verticalAlign=middle;whiteSpace=wrap;rounded=0;fontSize=16;" parent="1" vertex="1">
          <mxGeometry x="-280" y="100" width="60" height="30" as="geometry" />
        </mxCell>
        <mxCell id="Wp74-Qy4HKATFHPHKayA-33" style="edgeStyle=none;curved=1;rounded=0;orthogonalLoop=1;jettySize=auto;html=1;fontSize=12;startSize=8;endSize=8;fillColor=#d5e8d4;strokeColor=#82b366;exitX=0.25;exitY=0;exitDx=0;exitDy=0;exitPerimeter=0;entryX=0.75;entryY=1;entryDx=0;entryDy=0;entryPerimeter=0;" parent="1" source="rmGUA4Gjx7cMflotxFhx-22" target="Wp74-Qy4HKATFHPHKayA-31" edge="1">
          <mxGeometry relative="1" as="geometry">
            <mxPoint x="-152" y="285" as="sourcePoint" />
            <mxPoint x="-152" y="200" as="targetPoint" />
          </mxGeometry>
        </mxCell>
        <mxCell id="BYH0yZn23pgxhlCghBGR-1" value="Direct Queries" style="text;html=1;strokeColor=none;fillColor=none;align=center;verticalAlign=middle;whiteSpace=wrap;rounded=0;fontSize=16;" vertex="1" parent="1">
          <mxGeometry x="-480" y="410" width="130" height="30" as="geometry" />
        </mxCell>
      </root>
    </mxGraphModel>
  </diagram>
</mxfile>
